<?xml version="1.0" encoding="UTF-8" standalone="no"?>
<!-- Created with Inkscape (http://www.inkscape.org/) -->

<svg
   xmlns:dc="http://purl.org/dc/elements/1.1/"
   xmlns:cc="http://creativecommons.org/ns#"
   xmlns:rdf="http://www.w3.org/1999/02/22-rdf-syntax-ns#"
   xmlns:svg="http://www.w3.org/2000/svg"
   xmlns="http://www.w3.org/2000/svg"
   xmlns:xlink="http://www.w3.org/1999/xlink"
   xmlns:sodipodi="http://sodipodi.sourceforge.net/DTD/sodipodi-0.dtd"
   xmlns:inkscape="http://www.inkscape.org/namespaces/inkscape"
   width="72.198196"
   height="151.93654"
   viewBox="0 0 19.10244 40.199874"
   version="1.1"
   id="svg8"
   sodipodi:docname="paramorphism-crystal.svg"
   inkscape:version="0.92.4 5da689c313, 2019-01-14">
  <defs
     id="defs2">
    <linearGradient
       inkscape:collect="always"
       id="linearGradient3433">
      <stop
         style="stop-color:#8d81ff;stop-opacity:1;"
         offset="0"
         id="stop3429" />
      <stop
         style="stop-color:#8d81ff;stop-opacity:0;"
         offset="1"
         id="stop3431" />
    </linearGradient>
    <clipPath
       clipPathUnits="userSpaceOnUse"
       id="clipPath1909">
      <rect
         style="fill:#8d81ff;fill-opacity:1;stroke:#000003;stroke-width:0.26458332;stroke-linecap:butt;stroke-linejoin:miter;stroke-miterlimit:4;stroke-dasharray:none;stroke-opacity:1;paint-order:normal"
         id="rect1911"
         width="18.915958"
         height="18.750753"
         x="74.755203"
         y="76.121078" />
    </clipPath>
    <linearGradient
       inkscape:collect="always"
       xlink:href="#linearGradient3433"
       id="linearGradient3439"
       x1="102.67305"
       y1="103.49629"
       x2="251.0387"
       y2="103.49629"
       gradientUnits="userSpaceOnUse" />
  </defs>
  <sodipodi:namedview
     id="base"
     pagecolor="#000000"
     bordercolor="#666666"
     borderopacity="1.0"
     inkscape:pageopacity="1"
     inkscape:pageshadow="2"
     inkscape:zoom="1.2070534"
     inkscape:cx="-23.945514"
     inkscape:cy="124.58462"
     inkscape:document-units="mm"
     inkscape:current-layer="layer1"
     showgrid="false"
     inkscape:pagecheckerboard="false"
     fit-margin-right="0"
     fit-margin-left="0"
     fit-margin-top="0"
     fit-margin-bottom="0"
     inkscape:window-width="1920"
     inkscape:window-height="1048"
     inkscape:window-x="1920"
     inkscape:window-y="32"
     inkscape:window-maximized="1"
     units="px" />
  <metadata
     id="metadata5">
    <rdf:RDF>
      <cc:Work
         rdf:about="">
        <dc:format>image/svg+xml</dc:format>
        <dc:type
           rdf:resource="http://purl.org/dc/dcmitype/StillImage" />
        <dc:title></dc:title>
      </cc:Work>
    </rdf:RDF>
  </metadata>
  <g
     inkscape:label="Layer 1"
     inkscape:groupmode="layer"
     id="layer1"
     transform="translate(-166.02977,-38.10715)">
    <path
       style="fill:#8d81ff;fill-opacity:1;stroke-width:0.1314092"
       d="m 176.27567,75.73088 -4.01433,-2.576065 -0.16623,-0.160748 -0.16622,-0.160748 -2.94956,-7.330229 -2.94956,-7.330235 0.28365,-3.676726 0.28366,-3.676708 0.97138,-2.294938 0.97138,-2.294939 1.73075,-4.061194 1.73076,-4.0612 h 0.27895 0.27897 l 4.218,4.296629 4.21799,4.296631 0.22799,0.529714 0.22799,0.529734 1.8405,4.462614 1.84047,4.462604 -0.015,1.246612 -0.015,1.246603 -0.71163,6.650938 -0.71162,6.650945 -1.43018,2.766317 -1.43017,2.766336 -0.14797,0.147089 -0.14797,0.147111 h -0.1164 -0.1164 z m 5.33359,-0.727994 1.13694,-2.169698 0.006,-0.187636 0.006,-0.187614 -1.59764,-0.783537 -1.59767,-0.783523 h -0.15098 -0.15097 l -1.11078,1.255808 -1.11079,1.255804 0.2555,0.318779 0.2555,0.318764 1.32026,1.601166 1.32026,1.601161 0.14003,-0.03483 0.14002,-0.03483 z m -4.16211,-0.02616 -1.10462,-1.33091 -1.19853,-0.156281 -1.19854,-0.156259 -0.0661,0.05296 -0.0661,0.05296 2.30923,1.48065 2.30923,1.480679 0.0601,-0.04665 0.0601,-0.04665 z m 0.29108,-3.33957 1.20691,-1.372719 V 64.28846 58.312482 l -4.10789,-2.722742 -4.10788,-2.722763 -0.13659,0.06786 -0.13659,0.06784 -1.67839,2.381557 -1.67837,2.381556 -0.15055,0.235519 -0.15055,0.235521 2.86157,7.121712 2.86155,7.121721 0.058,0.04914 0.058,0.04918 1.43018,0.202755 1.43017,0.202777 0.51676,0.01246 0.51675,0.01375 z m 5.31474,0.107251 2.5e-4,-0.08827 0.73214,-6.827514 0.73212,-6.827515 0.001,-0.440383 10e-4,-0.440397 -2.14681,-3.208783 -2.14685,-3.208821 -0.27116,-0.35315 -0.27117,-0.353149 -0.002,10.144089 -0.002,10.144077 1.57179,0.774068 1.57178,0.774062 h 0.11512 0.11511 l 2.8e-4,-0.08827 z m -4.10875,-18.599092 -6.9e-4,-4.326072 -3.11634,-4.675489 -3.11636,-4.675496 -0.0932,-0.0037 -0.0932,-0.0037 -0.0934,0.618009 -0.0934,0.618009 -0.72856,5.759598 -0.72855,5.759605 0.0831,0.06733 0.0829,0.06733 3.83946,2.553466 3.83946,2.55347 0.10996,0.0075 0.10995,0.0075 z m -10.27095,1.225127 1.48365,-2.100343 0.65962,-5.139186 0.65961,-5.139187 -0.0429,-0.353145 -0.0429,-0.353149 -2.07948,4.944066 -2.07946,4.944063 -0.15892,2.354328 -0.15893,2.354314 0.001,0.406122 0.001,0.406109 0.1368,-0.111911 0.13681,-0.111912 1.48365,-2.100328 z m 13.06257,-4.123783 -1.33978,-3.243151 -2.65755,-2.711409 -2.65755,-2.711409 -0.0591,0.04738 -0.059,0.04738 3.99449,5.956831 3.9945,5.956841 0.0618,-0.0497 0.0618,-0.04969 z"
       id="path1001"
       inkscape:connector-curvature="0" />
    <text
       xml:space="preserve"
       style="font-style:normal;font-weight:normal;font-size:10.58333302px;line-height:1.25;font-family:sans-serif;letter-spacing:0px;word-spacing:0px;fill:#000000;fill-opacity:1;stroke:none;stroke-width:0.26458332"
       x="146.14511"
       y="-3.9832513"
       id="text824"><tspan
         sodipodi:role="line"
         id="tspan822"
         x="146.14511"
         y="5.2771649"
         style="stroke-width:0.26458332" /></text>
  </g>
</svg>
